<?xml version="1.0" encoding="utf-8"?>
<!-- Generator: Adobe Illustrator 24.1.2, SVG Export Plug-In . SVG Version: 6.00 Build 0)  -->
<svg version="1.1" id="Layer_1" xmlns="http://www.w3.org/2000/svg" xmlns:xlink="http://www.w3.org/1999/xlink" x="0px" y="0px"
	 viewBox="0 0 632.9 114.6" style="enable-background:new 0 0 632.9 114.6;" xml:space="preserve">
<style type="text/css">
	.st0{fill:#F26322;}
	.st1{fill:#78797C;}
	.st2{fill:#76777B;}
</style>
<g>
	<g>
		<polygon class="st0" points="146.4,73.1 145.8,76.9 137.3,76.9 137.3,82.4 144.4,82.4 144.4,86.2 137.3,86.2 137.3,92.5 
			146.7,92.5 146.7,96.6 132.3,96.6 132.3,73.1 		"/>
		<polygon class="st0" points="166.7,73.1 165.9,77 160,77 160,96.6 154.9,96.6 154.9,77 148.9,77 148.9,73.1 		"/>
		<polygon class="st0" points="182.2,73.1 182.2,82.2 189.4,82.2 189.4,73.1 194.4,73.1 194.4,96.6 189.4,96.6 189.4,86.1 
			182.2,86.1 182.2,96.6 177.3,96.6 177.3,73.1 		"/>
		<g>
			<path class="st0" d="M209.2,97c-9.2,0-10.7-7.5-10.7-12.3c0-7.4,4.1-12,10.7-12c6.6,0,10.7,4.6,10.7,12
				C219.8,89.5,218.4,97,209.2,97 M209.2,76.4c-4.5,0-4.9,4.3-4.9,8.4c0,6,1.5,8.5,4.9,8.5c3.5,0,4.9-2.5,4.9-8.5
				C214.1,80.7,213.6,76.4,209.2,76.4"/>
			<path class="st0" d="M237.2,78.1c-2.2-1.3-3.9-1.8-5.8-1.8c-2,0-3.5,1.1-3.5,2.7c0,1.2,0.7,1.8,2.8,2.4l3,0.8
				c4.1,1.1,6.3,3.5,6.3,7c0,4.8-4.1,7.9-10.2,7.9c-2.8,0-6-0.8-8.4-2.1l1.9-3.7c2.3,1.2,4.3,1.9,6.8,1.9c2.9,0,4.4-1.1,4.4-3.2
				c0-1.5-1-2.5-3.2-3.1l-2.8-0.7c-4-1.1-5.9-3-5.9-6.6c0-4.3,3.6-7.3,8.9-7.3c3,0,6.1,0.9,8.3,2.4L237.2,78.1z"/>
			<path class="st0" d="M251.2,73.1c7.9-0.1,9.7,3.7,9.7,7.2c0,3.6-2,7.6-9.2,7.6h-2.8v8.7h-5V73.1H251.2z M248.9,84.1h2.6
				c3.4,0,3.9-1.7,3.9-3.7c0-2.2-1.2-3.5-3.4-3.5h-3.2V84.1z"/>
			<path class="st0" d="M119.6,73.1c7.9-0.1,9.7,3.7,9.7,7.2c0,3.6-2,7.6-9.2,7.6h-2.8v8.7h-5V73.1H119.6z M117.2,84.1h2.6
				c3.4,0,3.9-1.7,3.9-3.7c0-2.2-1.2-3.5-3.3-3.5h-3.2V84.1z"/>
			<rect x="264" y="73.1" class="st0" width="5.2" height="23.6"/>
			<polygon class="st0" points="290,73.1 289.2,77 283.3,77 283.3,96.6 278.2,96.6 278.2,77 272.2,77 272.2,73.1 			"/>
			<path class="st0" d="M301.3,73l7.8,23.6h-5.4L302,91h-7.3l-1.8,5.6h-5.2l8.1-23.6H301.3z M300.8,87.1c0,0-0.8-2.5-1.4-4.7
				c-0.2-1.1-1-4.2-1-4.2s-0.7,2.8-1.2,4.5c-0.5,1.7-0.8,2.8-1.3,4.4C295.9,87.1,300.8,87.1,300.8,87.1z"/>
			<polygon class="st0" points="316.8,73.1 316.8,92.7 325.7,92.7 324.8,96.6 311.7,96.6 311.7,73.1 			"/>
			<path class="st0" d="M138.1,40.9c3.3-1.6,4.7-5.1,4.7-9.1c0-4.6-2.4-11.7-15-11.7h-14.8c-0.7,0-1.2,0.5-1.2,1.2v42.4
				c0,0.6,0.5,1.2,1.2,1.2h15.4c14.3,0,16.2-8.8,16.2-13C144.6,47.1,142.1,42.7,138.1,40.9 M120.1,44.7h8.1c7.9,0,8,4.5,8,6.6
				c0,2.4-0.3,6.6-8,6.6h-8.1C120.1,57.9,120.1,44.7,120.1,44.7z M127.5,37.7h-7.4V27.2h7.4c7,0,7.2,3.5,7.2,5.2
				C134.7,34.3,134.5,37.7,127.5,37.7"/>
			<path class="st0" d="M171.7,34c-2.5-2.6-6.3-3.9-11.3-3.9c-4.8,0-8.5,1.2-11.4,2.3c-0.4,0.2-0.8,0.6-0.8,1.1v4.8c0,1,1,1.4,1.7,1
				c3.4-1.8,6.6-2.5,9.8-2.5c6,0,7.7,2.9,7.9,5.7h-6.2c-5,0-8.9,1-11.5,3c-2.7,2-4.1,5.1-4.1,9c0,3.4,1.1,6.2,3.3,8.2
				c2.1,2,5.1,3.1,8.6,3.1c5.9,0,8.8-2.3,9.9-3.5v1.5c0,0.7,0.5,1.2,1.2,1.2h5.3c0.6,0,1.2-0.5,1.2-1.2V45.6
				C175.5,40.5,174.2,36.6,171.7,34 M167.9,49c0,4.7-2.2,10.1-8.5,10.1c-3.4,0-5.7-1.7-5.7-4.9c0-4.3,3.2-5.2,10.2-5.2L167.9,49
				L167.9,49z"/>
			<path class="st0" d="M196.2,30c-4.5,0-7.6,2-9.2,3.6V32c0-0.6-0.5-1.2-1.2-1.2h-5.3c-0.6,0-1.2,0.5-1.2,1.2v31.8
				c0,0.7,0.5,1.2,1.2,1.2h5.3c0.6,0,1.2-0.5,1.2-1.2v-18c0-5.2,2.6-8.9,8-8.9c5,0,5.9,3.8,5.9,7.8v19c0,0.7,0.5,1.2,1.2,1.2h5.3
				c0.6,0,1.2-0.5,1.2-1.2V44.6C208.6,36.4,205.2,30,196.2,30"/>
			<path class="st0" d="M230.6,18.4h-4.2c-4.9,0-11.6,1.1-11.6,11.3v1h-3.9c-0.6,0-1.2,0.5-1.2,1.2V36c0,0.6,0.5,1.2,1.2,1.2h3.9
				v26.6c0,0.6,0.5,1.2,1.2,1.2h5.3c0.6,0,1.2-0.5,1.2-1.2V37.2h6.9c0.6,0,1.2-0.5,1.2-1.2V32c0-0.6-0.5-1.2-1.2-1.2h-6.9v-1.6
				c0-2.2,0.5-3,0.8-3.3c0.4-0.4,1.2-0.8,3.1-0.8h4.2c0.6,0,1.2-0.5,1.2-1.2v-4.4C231.7,18.9,231.2,18.4,230.6,18.4"/>
			<path class="st0" d="M239.9,30.8h-5.3c-0.6,0-1.2,0.5-1.2,1.2v31.8c0,0.6,0.5,1.2,1.2,1.2h5.3c0.6,0,1.2-0.5,1.2-1.2V32
				C241.1,31.3,240.6,30.8,239.9,30.8"/>
			<path class="st0" d="M239.9,19.1h-5.3c-0.6,0-1.2,0.5-1.2,1.2v5.4c0,0.6,0.5,1.2,1.2,1.2h5.3c0.6,0,1.2-0.5,1.2-1.2v-5.4
				C241.1,19.7,240.6,19.1,239.9,19.1"/>
			<path class="st0" d="M261.4,30c-9.8,0-16.9,6.5-16.9,18.2c0,13.2,9.5,17.6,17.9,17.6c5,0,9.1-1.2,12.3-2.5
				c0.4-0.2,0.7-0.6,0.7-1.1v-4.9c0-0.8-0.9-1.5-1.7-1c-2.7,1.4-6.5,2.8-11,2.8c-5.6,0-9.4-2.7-10.2-8.7h23c0.6,0,1.2-0.5,1.2-1.2
				v-2.6C276.6,36.9,271.1,30,261.4,30 M252.6,43.9c0.8-4,3.4-7.1,8.5-7.1c6.3,0,7.5,4.8,7.7,7.1L252.6,43.9z"/>
			<path class="st0" d="M286.1,18.4h-5.3c-0.6,0-1.2,0.5-1.2,1.2v44.2c0,0.6,0.5,1.2,1.2,1.2h5.3c0.6,0,1.2-0.5,1.2-1.2V19.6
				C287.3,18.9,286.7,18.4,286.1,18.4"/>
			<path class="st0" d="M321.3,55.8V19.6c0-0.6-0.5-1.2-1.2-1.2h-5.3c-0.6,0-1.2,0.5-1.2,1.2v13.8c-1.4-1.3-4.1-3.4-9.1-3.4
				c-6.4,0-14.3,4.8-14.3,17.9c0,9.3,4.8,17.9,14.3,17.9c6.2,0,9.1-3.1,10.1-4.4c0.9,1.6,2.4,3.2,5.2,4.7c0.6,0.3,1.3,0.1,1.6-0.4
				l2.8-4.3c0.4-0.6,0.2-1.4-0.5-1.8C321.6,58.4,321.3,57.7,321.3,55.8 M313.7,47.9c0,7.1-3,11.2-7.8,11.2c-5,0-7.8-4.2-7.8-11.2
				c0-6.4,2.6-11.2,7.8-11.2C310.7,36.7,313.7,40.7,313.7,47.9"/>
			<path class="st0" d="M329.9,22.6c0,1.8-1.4,3.1-3.2,3.1c-1.8,0-3.2-1.4-3.2-3.1s1.4-3.1,3.2-3.1
				C328.5,19.5,329.9,20.8,329.9,22.6 M324.3,22.6c0,1.4,1,2.5,2.4,2.5c1.4,0,2.4-1.1,2.4-2.5c0-1.4-1-2.5-2.4-2.5
				C325.3,20.1,324.3,21.2,324.3,22.6 M326.2,24.2h-0.7v-3.1c0.3,0,0.7-0.1,1.2-0.1c0.6,0,0.9,0.1,1.1,0.2c0.2,0.1,0.3,0.4,0.3,0.7
				c0,0.4-0.3,0.6-0.6,0.7v0c0.3,0.1,0.5,0.3,0.5,0.8c0.1,0.5,0.2,0.6,0.2,0.8h-0.8c-0.1-0.1-0.1-0.4-0.2-0.8
				c-0.1-0.3-0.2-0.5-0.6-0.5h-0.3L326.2,24.2L326.2,24.2z M326.2,22.5h0.3c0.4,0,0.7-0.1,0.7-0.5c0-0.3-0.2-0.5-0.7-0.5
				c-0.2,0-0.3,0-0.4,0V22.5z"/>
			<path class="st0" d="M41.5,39.1c0,0,4.2-0.8,9.1,1.2c2.7,1.1,3.9,4.6,5.9,4.8c7.6,0.7,14.6,0,15.1,2.5c0.5,2.7-0.9,4.5-0.9,4.5
				c0.1,5.2-1.4,8.8-4.6,10c-7.6,2.7-11,0.9-15.8,4c-3.9,2.6-5.7,9-5.9,10.4c-0.9,6,2.8,12.4,2.9,20c0,2.9-0.2,4.9-0.5,6.2h19.3
				c1.3,0,2.3-1.1,2.4-2.3V81c0-1.3,1-2.3,2.3-2.3h18.7c1.2,0,2.2-1,2.2-2.2V37.7c0-1.2-1-2.2-2.2-2.2H70.8c-1.3,0-2.3-1-2.3-2.3
				V15.2c0-1.3-1.1-2.3-2.4-2.3H27.7c-1.3,0-2.3,1-2.4,2.3v18.1c0,1.3-1,2.3-2.3,2.3H4.3c-1.3,0-2.3,1-2.3,2.3v34.6
				c6-2.2,17.9-3.5,22-17.1c0.9-2.9,1.9-8.4,4-11.1c2-2.6,3.4-3,3.5-3.8c0.9-4.5,7-8.3,8.5-10.7C42,26.7,44.3,31.4,41.5,39.1"/>
			<path class="st0" d="M31,51.8c0-0.7,0.1-1.6,0.8-1.6c0.5,0,0.8,0.6,1,0.9c0.5,0.7,1.3,3,2,3.2c1.4-0.3,2.6-0.6,3.7-0.5
				c1.7,0.1,3.2,0.7,4.4,1.9c0.5,0.5,1,0.5,1.7,0.6c0.5,0.1,1.4,0.2,1.8,0.6c1,1.4,1,3.4,0.5,5c-0.6,1.8-1.8,2.1-3.6,2.9
				c-1.5,0.7-2.1,1.5-2.7,3.6c-0.8,3.1,0.4,6.9,0.7,10.3c0.6,7.4,0.1,15.4-3.9,21.8c-0.3,0.4-1,1.5-1.5,2.2h-8.2
				c-1.4-0.1-2.3-1.1-2.4-2.4V81.5c0-1.4-0.7-2.7-2.3-2.8H3.9c-0.7,0-1.3-0.6-1.5-0.9c0.7-0.9,2.1-2.3,4.7-3.4
				c2.7-1.2,5.7-1.7,8.6-2c2.7-0.2,5.9,0.1,8.2-1.5c2.2-1.5,3.2-4.2,3.2-7.1c0-0.9,0-1.3,0-1.7c0-0.6,0.4-0.9,0.3-1.6
				c-0.1-3-0.4-5.7-0.1-7.4c0.1-1,0.4-2.5,0.7-2.8c0.3-0.2,0.8-0.2,1.1,0C29.5,50.5,30.2,51.1,31,51.8"/>
		</g>
	</g>
	<g>
		<rect x="353.5" y="2.9" class="st1" width="1.3" height="109.2"/>
		<g>
			<path class="st0" d="M386.2,30h-8.4v-7.4h18v23.2c0,2.4-0.3,4.2-0.3,4.2h0.2c0,0,4.5-8.7,16.2-8.7c13.6,0,22.1,10.7,22.1,26.3
				c0,16-9.6,26.3-22.9,26.3c-11.6,0-15.9-9.1-15.9-9.1h-0.2c0,0,0.3,1.8,0.3,4v4h-9.1L386.2,30L386.2,30z M409.9,85.4
				c7.8,0,14.4-6.4,14.4-17.8c0-10.9-5.9-17.9-14.2-17.9c-7.4,0-14.5,5.2-14.5,18C395.6,76.6,400.2,85.4,409.9,85.4"/>
			<path class="st2" d="M434.4,85.1h7.9V30h-8.4v-7.4h17.9v26c0,2.4-0.3,4.2-0.3,4.2h0.2c2.2-4.9,8.7-11.5,18.7-11.5
				c11.8,0,17.2,6.4,17.2,19.2v24.7h7.8v7.4h-17.5V62.6c0-7-1.5-12.6-9.5-12.6c-9.8,0-16.8,8.3-16.8,19v16.1h7.9v7.4h-25.4
				L434.4,85.1L434.4,85.1z"/>
			<path class="st2" d="M520.7,41.2c14.3,0,21.7,10.5,21.7,23.5c0,1.3-0.3,3.7-0.3,3.7h-36.7c0.6,11.1,8.4,17,17.3,17
				c8.7,0,15-5.7,15-5.7l4,7c0,0-7.5,6.9-19.5,6.9c-15.8,0-26.6-11.4-26.6-26.3C495.6,51.5,506.4,41.2,520.7,41.2 M532.5,62.2
				c-0.3-8.8-5.7-13.4-12-13.4c-7.3,0-13.3,5-14.7,13.4H532.5z"/>
			<path class="st2" d="M546.4,85.1h7.5V52c0-1.5-0.8-2.2-2.2-2.2h-6.2v-7.4h11.3c4.4,0,6.4,1.8,6.4,5.8v3.2c0,2-0.2,3.5-0.2,3.5
				h0.2c2.3-7.3,8.1-13.1,15.9-13.1c1.3,0,2.5,0.2,2.5,0.2v9.5c0,0-1.2-0.3-2.8-0.3c-10.7,0-15.3,10.8-15.3,20.6v13.3h7.4v7.4h-24.6
				L546.4,85.1L546.4,85.1z"/>
			<path class="st2" d="M607.5,41.2c14.3,0,21.7,10.5,21.7,23.5c0,1.3-0.3,3.7-0.3,3.7h-36.7c0.6,11.1,8.4,17,17.3,17
				c8.7,0,15-5.7,15-5.7l4,7c0,0-7.5,6.9-19.5,6.9c-15.8,0-26.6-11.4-26.6-26.3C582.4,51.5,593.2,41.2,607.5,41.2 M619.3,62.2
				c-0.3-8.8-5.7-13.4-12-13.4c-7.3,0-13.3,5-14.7,13.4H619.3z"/>
		</g>
	</g>
</g>
</svg>
